{"title":"Bad.Milo.2013.WEBrip Xvid Ac3-MiLLENiUM","uid":8867125,"size":1143505892,"categoryP":"video","categoryS":"movies","magnet":"?xt=urn:btih:0d09f3f8ec7d0b04d76be4761443056d2a784cb2&amp;dn=Bad.Milo.2013.WEBrip+Xvid+Ac3-MiLLENiUM&amp;tr=udp%3A%2F%2Ftracker.openbittorrent.com%3A80&amp;tr=udp%3A%2F%2Fopen.demonii.com%3A1337&amp;tr=udp%3A%2F%2Ftracker.coppersurfer.tk%3A6969&amp;tr=udp%3A%2F%2Fexodus.desync.com%3A6969","seeders":0,"leechers":1,"uploader":"EliteScene","files":3,"time":1377948465,"description":"General &lt;a href=&quot;\nhttp://www.imdb.com/title/tt2274570/&quot; rel=&quot;nofollow&quot; target=&quot;_NEW&quot;&gt;\nhttp://www.imdb.com/title/tt2274570/&lt;/a&gt;\nComplete name : Bad.Milo.2013.WEBrip Xvid Ac3-MiLLENiUM.avi\nsource : 1080p WEBDL [thanks]\nFormat : AVI\nFormat/Info : Audio Video Interleave\nFile size : 1.06 GiB\nDuration : 1h 24mn\nOverall bit rate : 1 796 Kbps\nWriting application : VirtualDubMod 1.5.10.2 (build 2540/release)\nWriting library : VirtualDubMod build 2540/release\n\nVideo\nID : 0\nFormat : MPEG-4 Visual\nFormat profile : Advanced Simple@L5\nFormat settings, BVOP : 2\nFormat settings, QPel : No\nFormat settings, GMC : No warppoints\nFormat settings, Matrix : Default (H.263)\nCodec ID : XVID\nCodec ID/Hint : XviD\nDuration : 1h 24mn\nBit rate : 1 403 Kbps\nWidth : 720 pixels\nHeight : 384 pixels\nDisplay aspect ratio : 1.875\nFrame rate : 23.976 fps\nColor space : YUV\nChroma subsampling : 4:2:0\nBit depth : 8 bits\nScan type : Progressive\nCompression mode : Lossy\nBits/(Pixel*Frame) : 0.212\nStream size : 844 MiB (78%)\nWriting library : XviD 1.2.1 (UTC 2008-12-04)\n\nAudio\nID : 1\nFormat : AC-3\nFormat/Info : Audio Coding 3\nMode extension : CM (complete main)\nCodec ID : 2000\nDuration : 1h 24mn\nBit rate mode : Constant\nBit rate : 384 Kbps\nChannel(s) : 6 channels\nChannel positions : Front: L C R, Side: L R, LFE\nSampling rate : 48.0 KHz\nBit depth : 16 bits\nCompression mode : Lossy\nStream size : 231 MiB (21%)\nAlignment : Split accross interleaves\nInterleave, duration : 42 ms (1.00 video frame)\nInterleave, preload duration : 500 ms\n\nScreens :\n[img]http://s16.postimg.org/si1yxa14l/Bad_Milo_2013_WEBrip_Xvid_Ac3_Mi_LLENi_UM_avi_snap.png[/img]\n[img]http://s16.postimg.org/5kf77s6yd/Bad_Milo_2013_WEBrip_Xvid_Ac3_Mi_LLENi_UM_avi_snap.png[/img]","torrent":{"xt":"urn:btih:0d09f3f8ec7d0b04d76be4761443056d2a784cb2","amp;dn":"Bad.Milo.2013.WEBrip+Xvid+Ac3-MiLLENiUM","amp;tr":["udp%3A%2F%2Ftracker.openbittorrent.com%3A80","udp%3A%2F%2Fopen.demonii.com%3A1337","udp%3A%2F%2Ftracker.coppersurfer.tk%3A6969","udp%3A%2F%2Fexodus.desync.com%3A6969"],"infoHash":"0d09f3f8ec7d0b04d76be4761443056d2a784cb2","infoHashBuffer":{"type":"Buffer","data":[13,9,243,248,236,125,11,4,215,107,228,118,20,67,5,109,42,120,76,178]},"announce":[],"urlList":[]}}